<mxfile host="app.diagrams.net" modified="2021-05-01T15:50:24.331Z" agent="5.0 (Windows)" etag="5L4pPDf0lfxgI0-1NsOw" version="14.6.9" type="github">
  <diagram id="C5RBs43oDa-KdzZeNtuy" name="Page-1">
    <mxGraphModel dx="1038" dy="547" grid="1" gridSize="10" guides="1" tooltips="1" connect="1" arrows="1" fold="1" page="1" pageScale="1" pageWidth="827" pageHeight="1169" math="0" shadow="0">
      <root>
        <mxCell id="WIyWlLk6GJQsqaUBKTNV-0" />
        <mxCell id="WIyWlLk6GJQsqaUBKTNV-1" parent="WIyWlLk6GJQsqaUBKTNV-0" />
        <mxCell id="saZbqqf7MOqcNQ5cD1Mz-0" value="year" style="rounded=1;whiteSpace=wrap;html=1;" vertex="1" parent="WIyWlLk6GJQsqaUBKTNV-1">
          <mxGeometry x="320" y="150" width="120" height="60" as="geometry" />
        </mxCell>
        <mxCell id="saZbqqf7MOqcNQ5cD1Mz-2" value="" style="endArrow=none;html=1;entryX=0.5;entryY=1;entryDx=0;entryDy=0;" edge="1" parent="WIyWlLk6GJQsqaUBKTNV-1" target="saZbqqf7MOqcNQ5cD1Mz-0">
          <mxGeometry width="50" height="50" relative="1" as="geometry">
            <mxPoint x="380" y="220" as="sourcePoint" />
            <mxPoint x="440" y="360" as="targetPoint" />
          </mxGeometry>
        </mxCell>
        <mxCell id="saZbqqf7MOqcNQ5cD1Mz-7" style="edgeStyle=orthogonalEdgeStyle;rounded=0;orthogonalLoop=1;jettySize=auto;html=1;exitX=1;exitY=1;exitDx=0;exitDy=0;entryX=0.5;entryY=0;entryDx=0;entryDy=0;" edge="1" parent="WIyWlLk6GJQsqaUBKTNV-1" source="saZbqqf7MOqcNQ5cD1Mz-3" target="saZbqqf7MOqcNQ5cD1Mz-6">
          <mxGeometry relative="1" as="geometry" />
        </mxCell>
        <mxCell id="saZbqqf7MOqcNQ5cD1Mz-9" style="edgeStyle=orthogonalEdgeStyle;rounded=0;orthogonalLoop=1;jettySize=auto;html=1;exitX=0;exitY=1;exitDx=0;exitDy=0;entryX=0.5;entryY=0;entryDx=0;entryDy=0;" edge="1" parent="WIyWlLk6GJQsqaUBKTNV-1" source="saZbqqf7MOqcNQ5cD1Mz-3" target="saZbqqf7MOqcNQ5cD1Mz-8">
          <mxGeometry relative="1" as="geometry" />
        </mxCell>
        <mxCell id="saZbqqf7MOqcNQ5cD1Mz-3" value="year evenly divisible by 4 ?" style="rhombus;whiteSpace=wrap;html=1;" vertex="1" parent="WIyWlLk6GJQsqaUBKTNV-1">
          <mxGeometry x="280" y="220" width="200" height="80" as="geometry" />
        </mxCell>
        <mxCell id="saZbqqf7MOqcNQ5cD1Mz-5" value="" style="endArrow=none;html=1;entryX=0;entryY=1;entryDx=0;entryDy=0;" edge="1" parent="WIyWlLk6GJQsqaUBKTNV-1" target="saZbqqf7MOqcNQ5cD1Mz-6">
          <mxGeometry width="50" height="50" relative="1" as="geometry">
            <mxPoint x="430" y="350" as="sourcePoint" />
            <mxPoint x="430" y="280" as="targetPoint" />
          </mxGeometry>
        </mxCell>
        <mxCell id="saZbqqf7MOqcNQ5cD1Mz-14" style="edgeStyle=orthogonalEdgeStyle;rounded=0;orthogonalLoop=1;jettySize=auto;html=1;exitX=0.5;exitY=1;exitDx=0;exitDy=0;" edge="1" parent="WIyWlLk6GJQsqaUBKTNV-1" source="saZbqqf7MOqcNQ5cD1Mz-6" target="saZbqqf7MOqcNQ5cD1Mz-13">
          <mxGeometry relative="1" as="geometry" />
        </mxCell>
        <mxCell id="saZbqqf7MOqcNQ5cD1Mz-6" value="yes" style="rounded=0;whiteSpace=wrap;html=1;" vertex="1" parent="WIyWlLk6GJQsqaUBKTNV-1">
          <mxGeometry x="400" y="310" width="80" height="40" as="geometry" />
        </mxCell>
        <mxCell id="saZbqqf7MOqcNQ5cD1Mz-12" style="edgeStyle=orthogonalEdgeStyle;rounded=0;orthogonalLoop=1;jettySize=auto;html=1;exitX=0.5;exitY=1;exitDx=0;exitDy=0;entryX=0.5;entryY=0;entryDx=0;entryDy=0;" edge="1" parent="WIyWlLk6GJQsqaUBKTNV-1" source="saZbqqf7MOqcNQ5cD1Mz-8" target="saZbqqf7MOqcNQ5cD1Mz-11">
          <mxGeometry relative="1" as="geometry" />
        </mxCell>
        <mxCell id="saZbqqf7MOqcNQ5cD1Mz-8" value="no" style="rounded=0;whiteSpace=wrap;html=1;" vertex="1" parent="WIyWlLk6GJQsqaUBKTNV-1">
          <mxGeometry x="280" y="310" width="80" height="40" as="geometry" />
        </mxCell>
        <mxCell id="saZbqqf7MOqcNQ5cD1Mz-11" value="NOT A LEAP YEAR" style="rounded=0;whiteSpace=wrap;html=1;" vertex="1" parent="WIyWlLk6GJQsqaUBKTNV-1">
          <mxGeometry x="280" y="370" width="80" height="40" as="geometry" />
        </mxCell>
        <mxCell id="saZbqqf7MOqcNQ5cD1Mz-19" style="edgeStyle=orthogonalEdgeStyle;rounded=0;orthogonalLoop=1;jettySize=auto;html=1;exitX=1;exitY=1;exitDx=0;exitDy=0;entryX=0.5;entryY=0;entryDx=0;entryDy=0;" edge="1" parent="WIyWlLk6GJQsqaUBKTNV-1" source="saZbqqf7MOqcNQ5cD1Mz-13" target="saZbqqf7MOqcNQ5cD1Mz-16">
          <mxGeometry relative="1" as="geometry" />
        </mxCell>
        <mxCell id="saZbqqf7MOqcNQ5cD1Mz-20" style="edgeStyle=orthogonalEdgeStyle;rounded=0;orthogonalLoop=1;jettySize=auto;html=1;exitX=0;exitY=1;exitDx=0;exitDy=0;entryX=0.5;entryY=0;entryDx=0;entryDy=0;" edge="1" parent="WIyWlLk6GJQsqaUBKTNV-1" source="saZbqqf7MOqcNQ5cD1Mz-13" target="saZbqqf7MOqcNQ5cD1Mz-17">
          <mxGeometry relative="1" as="geometry" />
        </mxCell>
        <mxCell id="saZbqqf7MOqcNQ5cD1Mz-13" value="year % 100 == 0?" style="rhombus;whiteSpace=wrap;html=1;" vertex="1" parent="WIyWlLk6GJQsqaUBKTNV-1">
          <mxGeometry x="370" y="400" width="140" height="80" as="geometry" />
        </mxCell>
        <mxCell id="saZbqqf7MOqcNQ5cD1Mz-24" style="edgeStyle=orthogonalEdgeStyle;rounded=0;orthogonalLoop=1;jettySize=auto;html=1;exitX=0.5;exitY=1;exitDx=0;exitDy=0;entryX=0.5;entryY=0;entryDx=0;entryDy=0;" edge="1" parent="WIyWlLk6GJQsqaUBKTNV-1" source="saZbqqf7MOqcNQ5cD1Mz-16" target="saZbqqf7MOqcNQ5cD1Mz-25">
          <mxGeometry relative="1" as="geometry">
            <mxPoint x="490" y="545" as="targetPoint" />
          </mxGeometry>
        </mxCell>
        <mxCell id="saZbqqf7MOqcNQ5cD1Mz-16" value="yes" style="rounded=0;whiteSpace=wrap;html=1;" vertex="1" parent="WIyWlLk6GJQsqaUBKTNV-1">
          <mxGeometry x="450" y="490" width="80" height="40" as="geometry" />
        </mxCell>
        <mxCell id="saZbqqf7MOqcNQ5cD1Mz-28" style="edgeStyle=orthogonalEdgeStyle;rounded=0;orthogonalLoop=1;jettySize=auto;html=1;exitX=0.5;exitY=1;exitDx=0;exitDy=0;entryX=0.5;entryY=0;entryDx=0;entryDy=0;" edge="1" parent="WIyWlLk6GJQsqaUBKTNV-1" source="saZbqqf7MOqcNQ5cD1Mz-17" target="saZbqqf7MOqcNQ5cD1Mz-27">
          <mxGeometry relative="1" as="geometry" />
        </mxCell>
        <mxCell id="saZbqqf7MOqcNQ5cD1Mz-17" value="no" style="rounded=0;whiteSpace=wrap;html=1;" vertex="1" parent="WIyWlLk6GJQsqaUBKTNV-1">
          <mxGeometry x="350" y="490" width="80" height="40" as="geometry" />
        </mxCell>
        <mxCell id="saZbqqf7MOqcNQ5cD1Mz-34" style="edgeStyle=orthogonalEdgeStyle;rounded=0;orthogonalLoop=1;jettySize=auto;html=1;exitX=0.5;exitY=1;exitDx=0;exitDy=0;" edge="1" parent="WIyWlLk6GJQsqaUBKTNV-1" source="saZbqqf7MOqcNQ5cD1Mz-25" target="saZbqqf7MOqcNQ5cD1Mz-32">
          <mxGeometry relative="1" as="geometry" />
        </mxCell>
        <mxCell id="saZbqqf7MOqcNQ5cD1Mz-35" style="edgeStyle=orthogonalEdgeStyle;rounded=0;orthogonalLoop=1;jettySize=auto;html=1;exitX=0.5;exitY=1;exitDx=0;exitDy=0;entryX=0.5;entryY=0;entryDx=0;entryDy=0;" edge="1" parent="WIyWlLk6GJQsqaUBKTNV-1" source="saZbqqf7MOqcNQ5cD1Mz-25" target="saZbqqf7MOqcNQ5cD1Mz-31">
          <mxGeometry relative="1" as="geometry" />
        </mxCell>
        <mxCell id="saZbqqf7MOqcNQ5cD1Mz-25" value="year % 400 == 0?" style="rhombus;whiteSpace=wrap;html=1;" vertex="1" parent="WIyWlLk6GJQsqaUBKTNV-1">
          <mxGeometry x="460" y="545" width="120" height="80" as="geometry" />
        </mxCell>
        <mxCell id="saZbqqf7MOqcNQ5cD1Mz-27" value="LEAP YEAR! " style="rounded=0;whiteSpace=wrap;html=1;" vertex="1" parent="WIyWlLk6GJQsqaUBKTNV-1">
          <mxGeometry x="350" y="565" width="80" height="40" as="geometry" />
        </mxCell>
        <mxCell id="saZbqqf7MOqcNQ5cD1Mz-29" value="NOT A LEAP YEAR" style="rounded=0;whiteSpace=wrap;html=1;" vertex="1" parent="WIyWlLk6GJQsqaUBKTNV-1">
          <mxGeometry x="414" y="730" width="80" height="40" as="geometry" />
        </mxCell>
        <mxCell id="saZbqqf7MOqcNQ5cD1Mz-30" value="LEAP YEAR! " style="rounded=0;whiteSpace=wrap;html=1;" vertex="1" parent="WIyWlLk6GJQsqaUBKTNV-1">
          <mxGeometry x="550" y="730" width="80" height="40" as="geometry" />
        </mxCell>
        <mxCell id="saZbqqf7MOqcNQ5cD1Mz-38" value="" style="edgeStyle=orthogonalEdgeStyle;rounded=0;orthogonalLoop=1;jettySize=auto;html=1;" edge="1" parent="WIyWlLk6GJQsqaUBKTNV-1" source="saZbqqf7MOqcNQ5cD1Mz-31" target="saZbqqf7MOqcNQ5cD1Mz-30">
          <mxGeometry relative="1" as="geometry" />
        </mxCell>
        <mxCell id="saZbqqf7MOqcNQ5cD1Mz-31" value="yes" style="rounded=0;whiteSpace=wrap;html=1;" vertex="1" parent="WIyWlLk6GJQsqaUBKTNV-1">
          <mxGeometry x="550" y="660" width="80" height="40" as="geometry" />
        </mxCell>
        <mxCell id="saZbqqf7MOqcNQ5cD1Mz-37" value="" style="edgeStyle=orthogonalEdgeStyle;rounded=0;orthogonalLoop=1;jettySize=auto;html=1;" edge="1" parent="WIyWlLk6GJQsqaUBKTNV-1" source="saZbqqf7MOqcNQ5cD1Mz-32" target="saZbqqf7MOqcNQ5cD1Mz-29">
          <mxGeometry relative="1" as="geometry" />
        </mxCell>
        <mxCell id="saZbqqf7MOqcNQ5cD1Mz-32" value="no" style="rounded=0;whiteSpace=wrap;html=1;" vertex="1" parent="WIyWlLk6GJQsqaUBKTNV-1">
          <mxGeometry x="414" y="660" width="80" height="40" as="geometry" />
        </mxCell>
      </root>
    </mxGraphModel>
  </diagram>
</mxfile>
